<?xml version="1.0" encoding="iso-8859-1"?>
<!-- Generator: Adobe Illustrator 16.0.0, SVG Export Plug-In . SVG Version: 6.00 Build 0)  -->
<!DOCTYPE svg PUBLIC "-//W3C//DTD SVG 1.1//EN" "http://www.w3.org/Graphics/SVG/1.1/DTD/svg11.dtd">
<svg version="1.1" id="Capa_1" xmlns="http://www.w3.org/2000/svg" xmlns:xlink="http://www.w3.org/1999/xlink" x="0px" y="0px"
	 width="516.375px" height="516.375px" viewBox="0 0 516.375 516.375" style="enable-background:new 0 0 516.375 516.375;"
	 xml:space="preserve">
<g>
	<g>
		<polygon points="258.188,0 193.163,57.375 323.213,57.375 		"/>
		<path d="M439.875,160.65v105.188L367.2,327.037l-42.075,36.338l112.838,97.537l-15.301,15.301l-114.75-97.538h-99.45l0,0
			l-114.75,97.538l-15.3-15.301l112.837-97.537l-42.075-36.338L76.5,265.838V160.65l-57.375,49.725V229.5v248.625
			c0,21.037,17.212,38.25,38.25,38.25H459c21.037,0,38.25-17.213,38.25-38.25v-267.75L439.875,160.65z"/>
		<path d="M357.638,306l63.112-53.55V95.625c0-11.475-9.562-19.125-19.125-19.125H114.75c-11.475,0-19.125,7.65-19.125,19.125
			V252.45L158.737,306H357.638z M133.875,133.875H382.5V153H133.875V133.875z M133.875,191.25H382.5v19.125H133.875V191.25z
			 M133.875,248.625H382.5v19.125H133.875V248.625z"/>
		<polygon points="300.263,353.812 334.688,325.125 181.688,325.125 216.112,353.812 		"/>
	</g>
</g>
<g>
</g>
<g>
</g>
<g>
</g>
<g>
</g>
<g>
</g>
<g>
</g>
<g>
</g>
<g>
</g>
<g>
</g>
<g>
</g>
<g>
</g>
<g>
</g>
<g>
</g>
<g>
</g>
<g>
</g>
</svg>
